<svg width="75" height="76" viewBox="0 0 75 76" fill="none" xmlns="http://www.w3.org/2000/svg">
<path d="M67.7186 45.1875L66.4686 60.8125C65.9999 65.5937 65.6249 69.25 57.1561 69.25H17.8436C9.37488 69.25 8.99988 65.5937 8.53113 60.8125L7.28113 45.1875C7.03113 42.5938 7.84363 40.1875 9.31238 38.3437C9.34363 38.3125 9.34363 38.3125 9.37488 38.2813C11.0936 36.1875 13.6874 34.875 16.5936 34.875H58.4061C61.3124 34.875 63.8749 36.1875 65.5624 38.2187C65.5936 38.25 65.6249 38.2813 65.6249 38.3125C67.1561 40.1563 67.9999 42.5625 67.7186 45.1875Z" stroke="#6B43B5" stroke-width="1.5" stroke-miterlimit="10"/>
<path d="M10.9375 36.2187V20.125C10.9375 9.5 13.5937 6.84375 24.2188 6.84375H28.1875C32.1563 6.84375 33.0625 8.03125 34.5625 10.0312L38.5312 15.3437C39.5312 16.6562 40.125 17.4687 42.7812 17.4687H50.75C61.375 17.4687 64.0312 20.125 64.0312 30.75V36.3437" stroke="#6B43B5" stroke-width="1.5" stroke-miterlimit="10" stroke-linecap="round" stroke-linejoin="round"/>
<path d="M29.4688 53.625H45.5313" stroke="#6B43B5" stroke-width="1.5" stroke-miterlimit="10" stroke-linecap="round" stroke-linejoin="round"/>
</svg>
