<svg width="39" height="40" viewBox="0 0 39 40" fill="none" xmlns="http://www.w3.org/2000/svg">
<path d="M14.625 36.25H24.375C32.5 36.25 35.75 33 35.75 24.875V15.125C35.75 7 32.5 3.75 24.375 3.75H14.625C6.5 3.75 3.25 7 3.25 15.125V24.875C3.25 33 6.5 36.25 14.625 36.25Z" stroke="white" stroke-width="3" stroke-linecap="round" stroke-linejoin="round"/>
<path d="M27.625 4.46484V20.6823C27.625 23.8836 25.3337 25.1348 22.5225 23.4448L20.3775 22.1611C19.89 21.8686 19.11 21.8686 18.6225 22.1611L16.4775 23.4448C13.6663 25.1186 11.375 23.8836 11.375 20.6823V4.46484" stroke="white" stroke-width="3" stroke-linecap="round" stroke-linejoin="round"/>
<path d="M14.625 36.25H24.375C32.5 36.25 35.75 33 35.75 24.875V15.125C35.75 7 32.5 3.75 24.375 3.75H14.625C6.5 3.75 3.25 7 3.25 15.125V24.875C3.25 33 6.5 36.25 14.625 36.25Z" stroke="white" stroke-width="3" stroke-linecap="round" stroke-linejoin="round"/>
<path d="M27.625 4.46484V20.6823C27.625 23.8836 25.3337 25.1348 22.5225 23.4448L20.3775 22.1611C19.89 21.8686 19.11 21.8686 18.6225 22.1611L16.4775 23.4448C13.6663 25.1186 11.375 23.8836 11.375 20.6823V4.46484" stroke="white" stroke-width="3" stroke-linecap="round" stroke-linejoin="round"/>
</svg>
