<svg width="21" height="21" viewBox="0 0 21 21" fill="none" xmlns="http://www.w3.org/2000/svg">
<path d="M18.8341 14.4501V4.39174C18.8341 3.39174 18.0175 2.65008 17.0258 2.73341H16.9758C15.2258 2.88341 12.5675 3.77508 11.0841 4.70841L10.9425 4.80008C10.7008 4.95008 10.3008 4.95008 10.0591 4.80008L9.85081 4.67508C8.36748 3.75008 5.71748 2.86674 3.96748 2.72508C2.97581 2.64174 2.16748 3.39174 2.16748 4.38341V14.4501C2.16748 15.2501 2.81748 16.0001 3.61748 16.1001L3.85915 16.1334C5.66748 16.3751 8.45915 17.2917 10.0591 18.1667L10.0925 18.1834C10.3175 18.3084 10.6758 18.3084 10.8925 18.1834C12.4925 17.3001 15.2925 16.3751 17.1091 16.1334L17.3841 16.1001C18.1841 16.0001 18.8341 15.2501 18.8341 14.4501Z" stroke="#979797" stroke-width="1.5" stroke-linecap="round" stroke-linejoin="round"/>
<path d="M10.5007 5.07422V17.5742" stroke="#979797" stroke-width="1.5" stroke-linecap="round" stroke-linejoin="round"/>
<path d="M6.95898 7.57422H5.08398" stroke="#979797" stroke-width="1.5" stroke-linecap="round" stroke-linejoin="round"/>
<path d="M7.58398 10.0742H5.08398" stroke="#979797" stroke-width="1.5" stroke-linecap="round" stroke-linejoin="round"/>
</svg>
