<svg width="18" height="18" viewBox="0 0 18 18" fill="none" xmlns="http://www.w3.org/2000/svg">
<path d="M6.75 16.502H11.25C15 16.502 16.5 15.002 16.5 11.252V6.75195C16.5 3.00195 15 1.50195 11.25 1.50195H6.75C3 1.50195 1.5 3.00195 1.5 6.75195V11.252C1.5 15.002 3 16.502 6.75 16.502Z" stroke="#6B43B5" stroke-width="1.2" stroke-linecap="round" stroke-linejoin="round"/>
<path d="M12.75 1.83203V9.31703C12.75 10.7945 11.6925 11.372 10.395 10.592L9.405 9.99953C9.18 9.86453 8.82 9.86453 8.595 9.99953L7.605 10.592C6.3075 11.3645 5.25 10.7945 5.25 9.31703V1.83203" stroke="#6B43B5" stroke-width="1.2" stroke-linecap="round" stroke-linejoin="round"/>
<path d="M6.75 16.502H11.25C15 16.502 16.5 15.002 16.5 11.252V6.75195C16.5 3.00195 15 1.50195 11.25 1.50195H6.75C3 1.50195 1.5 3.00195 1.5 6.75195V11.252C1.5 15.002 3 16.502 6.75 16.502Z" stroke="#6B43B5" stroke-width="1.2" stroke-linecap="round" stroke-linejoin="round"/>
<path d="M12.75 1.83203V9.31703C12.75 10.7945 11.6925 11.372 10.395 10.592L9.405 9.99953C9.18 9.86453 8.82 9.86453 8.595 9.99953L7.605 10.592C6.3075 11.3645 5.25 10.7945 5.25 9.31703V1.83203" stroke="#6B43B5" stroke-width="1.2" stroke-linecap="round" stroke-linejoin="round"/>
</svg>
