<svg width="40" height="39" viewBox="0 0 40 39" fill="none" xmlns="http://www.w3.org/2000/svg">
<path d="M6.86551 9.70125C4.80176 12.4312 3.58301 15.8275 3.58301 19.5C3.58301 28.47 10.863 35.75 19.833 35.75C28.803 35.75 36.083 28.47 36.083 19.5C36.083 10.53 28.803 3.25 19.833 3.25" stroke="white" stroke-width="3" stroke-linecap="round" stroke-linejoin="round"/>
<path d="M8.45801 19.5C8.45801 25.7887 13.5443 30.875 19.833 30.875C26.1218 30.875 31.208 25.7887 31.208 19.5C31.208 13.2113 26.1218 8.125 19.833 8.125" stroke="white" stroke-width="3" stroke-linecap="round" stroke-linejoin="round"/>
<path d="M19.833 26C23.4243 26 26.333 23.0913 26.333 19.5C26.333 15.9087 23.4243 13 19.833 13" stroke="white" stroke-width="3" stroke-linecap="round" stroke-linejoin="round"/>
</svg>
