<svg width="16" height="17" viewBox="0 0 16 17" fill="none" xmlns="http://www.w3.org/2000/svg">
<mask id="path-1-inside-1_444_29685" fill="white">
<path d="M8.00033 15.6669C5.33366 15.6669 3.16699 13.7536 3.16699 11.4003V8.93359C3.16699 8.66026 3.39366 8.43359 3.66699 8.43359C3.94033 8.43359 4.16699 8.66026 4.16699 8.93359C4.16699 10.6803 5.81366 12.0003 8.00033 12.0003C10.187 12.0003 11.8337 10.6803 11.8337 8.93359C11.8337 8.66026 12.0603 8.43359 12.3337 8.43359C12.607 8.43359 12.8337 8.66026 12.8337 8.93359V11.4003C12.8337 13.7536 10.667 15.6669 8.00033 15.6669ZM4.16699 11.4736C4.21366 13.2403 5.91366 14.6669 8.00033 14.6669C10.087 14.6669 11.787 13.2403 11.8337 11.4736C10.967 12.4136 9.59366 13.0003 8.00033 13.0003C6.40699 13.0003 5.04033 12.4136 4.16699 11.4736Z"/>
</mask>
<path d="M8.00033 15.6669C5.33366 15.6669 3.16699 13.7536 3.16699 11.4003V8.93359C3.16699 8.66026 3.39366 8.43359 3.66699 8.43359C3.94033 8.43359 4.16699 8.66026 4.16699 8.93359C4.16699 10.6803 5.81366 12.0003 8.00033 12.0003C10.187 12.0003 11.8337 10.6803 11.8337 8.93359C11.8337 8.66026 12.0603 8.43359 12.3337 8.43359C12.607 8.43359 12.8337 8.66026 12.8337 8.93359V11.4003C12.8337 13.7536 10.667 15.6669 8.00033 15.6669ZM4.16699 11.4736C4.21366 13.2403 5.91366 14.6669 8.00033 14.6669C10.087 14.6669 11.787 13.2403 11.8337 11.4736C10.967 12.4136 9.59366 13.0003 8.00033 13.0003C6.40699 13.0003 5.04033 12.4136 4.16699 11.4736Z" fill="#292D32"/>
<path d="M4.16699 11.4736L5.08275 10.6228L2.83003 8.1981L2.91743 11.5066L4.16699 11.4736ZM11.8337 11.4736L13.0832 11.5066L13.1711 8.17888L10.9147 10.6263L11.8337 11.4736ZM8.00033 14.4169C5.87311 14.4169 4.41699 12.9214 4.41699 11.4003H1.91699C1.91699 14.5858 4.79421 16.9169 8.00033 16.9169V14.4169ZM4.41699 11.4003V8.93359H1.91699V11.4003H4.41699ZM4.41699 8.93359C4.41699 9.35062 4.08401 9.68359 3.66699 9.68359V7.18359C2.7033 7.18359 1.91699 7.9699 1.91699 8.93359H4.41699ZM3.66699 9.68359C3.24997 9.68359 2.91699 9.35062 2.91699 8.93359H5.41699C5.41699 7.9699 4.63068 7.18359 3.66699 7.18359V9.68359ZM2.91699 8.93359C2.91699 11.6159 5.39724 13.2503 8.00033 13.2503V10.7503C6.23008 10.7503 5.41699 9.74465 5.41699 8.93359H2.91699ZM8.00033 13.2503C10.6034 13.2503 13.0837 11.6159 13.0837 8.93359H10.5837C10.5837 9.74465 9.77057 10.7503 8.00033 10.7503V13.2503ZM13.0837 8.93359C13.0837 9.35062 12.7507 9.68359 12.3337 9.68359V7.18359C11.37 7.18359 10.5837 7.9699 10.5837 8.93359H13.0837ZM12.3337 9.68359C11.9166 9.68359 11.5837 9.35062 11.5837 8.93359H14.0837C14.0837 7.9699 13.2973 7.18359 12.3337 7.18359V9.68359ZM11.5837 8.93359V11.4003H14.0837V8.93359H11.5837ZM11.5837 11.4003C11.5837 12.9214 10.1275 14.4169 8.00033 14.4169V16.9169C11.2064 16.9169 14.0837 14.5858 14.0837 11.4003H11.5837ZM2.91743 11.5066C2.9865 14.1213 5.42097 15.9169 8.00033 15.9169V13.4169C6.40635 13.4169 5.44082 12.3592 5.41656 11.4406L2.91743 11.5066ZM8.00033 15.9169C10.5797 15.9169 13.0142 14.1213 13.0832 11.5066L10.5841 11.4406C10.5598 12.3592 9.5943 13.4169 8.00033 13.4169V15.9169ZM10.9147 10.6263C10.3174 11.2741 9.29596 11.7503 8.00033 11.7503V14.2503C9.89136 14.2503 11.6166 13.5531 12.7527 12.3209L10.9147 10.6263ZM8.00033 11.7503C6.70761 11.7503 5.68947 11.2758 5.08275 10.6228L3.25123 12.3244C4.39118 13.5514 6.10638 14.2503 8.00033 14.2503V11.7503Z" fill="#6B43B5" mask="url(#path-1-inside-1_444_29685)"/>
<mask id="path-3-inside-2_444_29685" fill="white">
<path d="M8.00033 9.66634C6.16033 9.66634 4.50698 8.83967 3.70032 7.50634C3.35365 6.93967 3.16699 6.27968 3.16699 5.59968C3.16699 4.45301 3.68033 3.37301 4.60699 2.55967C5.51366 1.76634 6.72033 1.33301 8.00033 1.33301C9.28032 1.33301 10.4803 1.76634 11.3937 2.55301C12.3203 3.37301 12.8337 4.45301 12.8337 5.59968C12.8337 6.27968 12.647 6.93301 12.3003 7.50634C11.4937 8.83967 9.84032 9.66634 8.00033 9.66634ZM8.00033 2.33301C6.96033 2.33301 5.987 2.67967 5.26034 3.31967C4.55367 3.93301 4.16699 4.74634 4.16699 5.59968C4.16699 6.09968 4.30032 6.56634 4.55365 6.98634C5.18698 8.02634 6.50699 8.66634 8.00033 8.66634C9.49366 8.66634 10.8137 8.01967 11.447 6.98634C11.707 6.56634 11.8337 6.09968 11.8337 5.59968C11.8337 4.74634 11.447 3.93301 10.7337 3.30634C10.007 2.67967 9.04033 2.33301 8.00033 2.33301Z"/>
</mask>
<path d="M8.00033 9.66634C6.16033 9.66634 4.50698 8.83967 3.70032 7.50634C3.35365 6.93967 3.16699 6.27968 3.16699 5.59968C3.16699 4.45301 3.68033 3.37301 4.60699 2.55967C5.51366 1.76634 6.72033 1.33301 8.00033 1.33301C9.28032 1.33301 10.4803 1.76634 11.3937 2.55301C12.3203 3.37301 12.8337 4.45301 12.8337 5.59968C12.8337 6.27968 12.647 6.93301 12.3003 7.50634C11.4937 8.83967 9.84032 9.66634 8.00033 9.66634ZM8.00033 2.33301C6.96033 2.33301 5.987 2.67967 5.26034 3.31967C4.55367 3.93301 4.16699 4.74634 4.16699 5.59968C4.16699 6.09968 4.30032 6.56634 4.55365 6.98634C5.18698 8.02634 6.50699 8.66634 8.00033 8.66634C9.49366 8.66634 10.8137 8.01967 11.447 6.98634C11.707 6.56634 11.8337 6.09968 11.8337 5.59968C11.8337 4.74634 11.447 3.93301 10.7337 3.30634C10.007 2.67967 9.04033 2.33301 8.00033 2.33301Z" fill="#292D32"/>
<path d="M3.70032 7.50634L4.76983 6.85929L4.76661 6.85402L3.70032 7.50634ZM4.60699 2.55967L3.78386 1.61895L3.78243 1.62021L4.60699 2.55967ZM11.3937 2.55301L12.222 1.61689L12.2158 1.61135L12.2094 1.60589L11.3937 2.55301ZM12.3003 7.50634L13.3698 8.15339L13.37 8.15311L12.3003 7.50634ZM5.26034 3.31967L6.0797 4.26372L6.08651 4.25772L5.26034 3.31967ZM4.55365 6.98634L3.48328 7.63196L3.48603 7.63649L4.55365 6.98634ZM11.447 6.98634L10.3842 6.32839L10.3812 6.33314L11.447 6.98634ZM10.7337 3.30634L11.5587 2.36721L11.55 2.35973L10.7337 3.30634ZM8.00033 8.41634C6.5013 8.41634 5.30422 7.7426 4.76982 6.85929L2.63082 8.15339C3.70975 9.93675 5.81935 10.9163 8.00033 10.9163V8.41634ZM4.76661 6.85402C4.54101 6.48524 4.41699 6.05125 4.41699 5.59968H1.91699C1.91699 6.5081 2.1663 7.3941 2.63403 8.15866L4.76661 6.85402ZM4.41699 5.59968C4.41699 4.8442 4.75077 4.09667 5.43156 3.49914L3.78243 1.62021C2.60989 2.64935 1.91699 4.06182 1.91699 5.59968H4.41699ZM5.43013 3.5004C6.09169 2.92152 6.99939 2.58301 8.00033 2.58301V0.0830078C6.44126 0.0830078 4.93563 0.61116 3.78386 1.61895L5.43013 3.5004ZM8.00033 2.58301C8.99894 2.58301 9.90473 2.92032 10.5779 3.50013L12.2094 1.60589C11.0559 0.612366 9.56171 0.0830078 8.00033 0.0830078V2.58301ZM10.5653 3.48913C11.2503 4.09524 11.5837 4.84486 11.5837 5.59968H14.0837C14.0837 4.06116 13.3904 2.65077 12.222 1.61689L10.5653 3.48913ZM11.5837 5.59968C11.5837 6.0478 11.4614 6.478 11.2307 6.85957L13.37 8.15311C13.8326 7.38801 14.0837 6.51155 14.0837 5.59968H11.5837ZM11.2308 6.85929C10.6964 7.7426 9.49935 8.41634 8.00033 8.41634V10.9163C10.1813 10.9163 12.2909 9.93675 13.3698 8.15339L11.2308 6.85929ZM8.00033 1.08301C6.68582 1.08301 5.41042 1.5218 4.43416 2.38162L6.08651 4.25772C6.56359 3.83755 7.23483 3.58301 8.00033 3.58301V1.08301ZM4.44099 2.37565C3.48656 3.20403 2.91699 4.35134 2.91699 5.59968H5.41699C5.41699 5.14135 5.62078 4.66199 6.07968 4.2637L4.44099 2.37565ZM2.91699 5.59968C2.91699 6.33094 3.11436 7.02032 3.48329 7.63196L5.62401 6.34072C5.48627 6.11236 5.41699 5.86841 5.41699 5.59968H2.91699ZM3.48603 7.63649C4.40172 9.14014 6.18936 9.91634 8.00033 9.91634V7.41634C6.82462 7.41634 5.97225 6.91254 5.62127 6.33619L3.48603 7.63649ZM8.00033 9.91634C9.81547 9.91634 11.5988 9.13081 12.5128 7.63954L10.3812 6.33314C10.0286 6.90854 9.17184 7.41634 8.00033 7.41634V9.91634ZM12.5098 7.64428C12.8985 7.01651 13.0837 6.31992 13.0837 5.59968H10.5837C10.5837 5.87943 10.5155 6.11617 10.3842 6.3284L12.5098 7.64428ZM13.0837 5.59968C13.0837 4.34864 12.5121 3.20488 11.5587 2.36725L9.90867 4.24543C10.3819 4.66114 10.5837 5.14404 10.5837 5.59968H13.0837ZM11.55 2.35973C10.579 1.52235 9.31624 1.08301 8.00033 1.08301V3.58301C8.76442 3.58301 9.43498 3.83699 9.91732 4.25295L11.55 2.35973Z" fill="#6B43B5" mask="url(#path-3-inside-2_444_29685)"/>
<mask id="path-5-inside-3_444_29685" fill="white">
<path d="M8.00033 12.9997C5.24699 12.9997 3.16699 11.253 3.16699 8.93301V5.59968C3.16699 3.24634 5.33366 1.33301 8.00033 1.33301C9.28032 1.33301 10.4803 1.76634 11.3937 2.55301C12.3203 3.37301 12.8337 4.45301 12.8337 5.59968V8.93301C12.8337 11.253 10.7537 12.9997 8.00033 12.9997ZM8.00033 2.33301C5.88699 2.33301 4.16699 3.79968 4.16699 5.59968V8.93301C4.16699 10.6797 5.81366 11.9997 8.00033 11.9997C10.187 11.9997 11.8337 10.6797 11.8337 8.93301V5.59968C11.8337 4.74634 11.447 3.93301 10.7337 3.30634C10.007 2.67967 9.04033 2.33301 8.00033 2.33301Z"/>
</mask>
<path d="M8.00033 12.9997C5.24699 12.9997 3.16699 11.253 3.16699 8.93301V5.59968C3.16699 3.24634 5.33366 1.33301 8.00033 1.33301C9.28032 1.33301 10.4803 1.76634 11.3937 2.55301C12.3203 3.37301 12.8337 4.45301 12.8337 5.59968V8.93301C12.8337 11.253 10.7537 12.9997 8.00033 12.9997ZM8.00033 2.33301C5.88699 2.33301 4.16699 3.79968 4.16699 5.59968V8.93301C4.16699 10.6797 5.81366 11.9997 8.00033 11.9997C10.187 11.9997 11.8337 10.6797 11.8337 8.93301V5.59968C11.8337 4.74634 11.447 3.93301 10.7337 3.30634C10.007 2.67967 9.04033 2.33301 8.00033 2.33301Z" fill="#292D32"/>
<path d="M11.3937 2.55301L12.222 1.61689L12.2158 1.61135L12.2094 1.60589L11.3937 2.55301ZM10.7337 3.30634L11.5587 2.36721L11.55 2.35973L10.7337 3.30634ZM8.00033 11.7497C5.72563 11.7497 4.41699 10.3684 4.41699 8.93301H1.91699C1.91699 12.1376 4.76836 14.2497 8.00033 14.2497V11.7497ZM4.41699 8.93301V5.59968H1.91699V8.93301H4.41699ZM4.41699 5.59968C4.41699 4.07851 5.87311 2.58301 8.00033 2.58301V0.0830078C4.79421 0.0830078 1.91699 2.41418 1.91699 5.59968H4.41699ZM8.00033 2.58301C8.99894 2.58301 9.90473 2.92032 10.5779 3.50013L12.2094 1.60589C11.0559 0.612366 9.56171 0.0830078 8.00033 0.0830078V2.58301ZM10.5653 3.48913C11.2503 4.09524 11.5837 4.84486 11.5837 5.59968H14.0837C14.0837 4.06116 13.3904 2.65077 12.222 1.61689L10.5653 3.48913ZM11.5837 5.59968V8.93301H14.0837V5.59968H11.5837ZM11.5837 8.93301C11.5837 10.3684 10.275 11.7497 8.00033 11.7497V14.2497C11.2323 14.2497 14.0837 12.1376 14.0837 8.93301H11.5837ZM8.00033 1.08301C5.39138 1.08301 2.91699 2.92948 2.91699 5.59968H5.41699C5.41699 4.66987 6.3826 3.58301 8.00033 3.58301V1.08301ZM2.91699 5.59968V8.93301H5.41699V5.59968H2.91699ZM2.91699 8.93301C2.91699 11.6153 5.39724 13.2497 8.00033 13.2497V10.7497C6.23008 10.7497 5.41699 9.74406 5.41699 8.93301H2.91699ZM8.00033 13.2497C10.6034 13.2497 13.0837 11.6153 13.0837 8.93301H10.5837C10.5837 9.74406 9.77057 10.7497 8.00033 10.7497V13.2497ZM13.0837 8.93301V5.59968H10.5837V8.93301H13.0837ZM13.0837 5.59968C13.0837 4.34864 12.5121 3.20488 11.5587 2.36725L9.90867 4.24543C10.3819 4.66114 10.5837 5.14404 10.5837 5.59968H13.0837ZM11.55 2.35973C10.579 1.52235 9.31624 1.08301 8.00033 1.08301V3.58301C8.76442 3.58301 9.43498 3.83699 9.91732 4.25295L11.55 2.35973Z" fill="#6B43B5" mask="url(#path-5-inside-3_444_29685)"/>
</svg>
