<svg width="40" height="39" viewBox="0 0 40 39" fill="none" xmlns="http://www.w3.org/2000/svg">
<path d="M24.5445 3.25H15.1195C14.0145 3.25 12.4545 3.90001 11.6745 4.68001L5.01204 11.3425C4.23204 12.1225 3.58203 13.6825 3.58203 14.7875V24.2125C3.58203 25.3175 4.23204 26.8775 5.01204 27.6575L11.6745 34.32C12.4545 35.1 14.0145 35.75 15.1195 35.75H24.5445C25.6495 35.75 27.2095 35.1 27.9895 34.32L34.652 27.6575C35.432 26.8775 36.082 25.3175 36.082 24.2125V14.7875C36.082 13.6825 35.432 12.1225 34.652 11.3425L27.9895 4.68001C27.2095 3.90001 25.6495 3.25 24.5445 3.25Z" stroke="white" stroke-width="3" stroke-linecap="round" stroke-linejoin="round"/>
<path d="M12.9258 19.4991L17.5245 24.0979L26.7383 14.9004" stroke="white" stroke-width="3" stroke-linecap="round" stroke-linejoin="round"/>
</svg>
