<svg width="21" height="21" viewBox="0 0 21 21" fill="none" xmlns="http://www.w3.org/2000/svg">
<path d="M12.6083 8.39355L8.3916 12.6102C7.84994 12.0686 7.5166 11.3269 7.5166 10.5019C7.5166 8.85189 8.84993 7.51855 10.4999 7.51855C11.3249 7.51855 12.0666 7.85189 12.6083 8.39355Z" stroke="#979797" stroke-width="1.5" stroke-linecap="round" stroke-linejoin="round"/>
<path d="M15.3499 5.31035C13.8915 4.21035 12.2249 3.61035 10.4999 3.61035C7.5582 3.61035 4.81654 5.34368 2.9082 8.34368C2.1582 9.51868 2.1582 11.4937 2.9082 12.6687C3.56654 13.702 4.3332 14.5937 5.16654 15.3104" stroke="#979797" stroke-width="1.5" stroke-linecap="round" stroke-linejoin="round"/>
<path d="M7.5166 16.777C8.4666 17.177 9.47493 17.3937 10.4999 17.3937C13.4416 17.3937 16.1833 15.6604 18.0916 12.6604C18.8416 11.4854 18.8416 9.51035 18.0916 8.33535C17.8166 7.90202 17.5166 7.49368 17.2083 7.11035" stroke="#979797" stroke-width="1.5" stroke-linecap="round" stroke-linejoin="round"/>
<path d="M13.4252 11.085C13.2085 12.26 12.2502 13.2183 11.0752 13.435" stroke="#979797" stroke-width="1.5" stroke-linecap="round" stroke-linejoin="round"/>
<path d="M8.39199 12.6104L2.16699 18.8354" stroke="#979797" stroke-width="1.5" stroke-linecap="round" stroke-linejoin="round"/>
<path d="M18.8334 2.16895L12.6084 8.39395" stroke="#979797" stroke-width="1.5" stroke-linecap="round" stroke-linejoin="round"/>
</svg>
