<svg width="21" height="21" viewBox="0 0 21 21" fill="none" xmlns="http://www.w3.org/2000/svg">
<path d="M13.4833 10.5019C13.4833 12.1519 12.1499 13.4852 10.4999 13.4852C8.84993 13.4852 7.5166 12.1519 7.5166 10.5019C7.5166 8.85189 8.84993 7.51855 10.4999 7.51855C12.1499 7.51855 13.4833 8.85189 13.4833 10.5019Z" stroke="#6B43B5" stroke-width="1.5" stroke-linecap="round" stroke-linejoin="round"/>
<path d="M10.4999 17.3932C13.4415 17.3932 16.1832 15.6599 18.0915 12.6599C18.8415 11.4849 18.8415 9.5099 18.0915 8.3349C16.1832 5.3349 13.4415 3.60156 10.4999 3.60156C7.5582 3.60156 4.81654 5.3349 2.9082 8.3349C2.1582 9.5099 2.1582 11.4849 2.9082 12.6599C4.81654 15.6599 7.5582 17.3932 10.4999 17.3932Z" stroke="#6B43B5" stroke-width="1.5" stroke-linecap="round" stroke-linejoin="round"/>
</svg>
