<svg width="72" height="24" viewBox="0 0 72 24" fill="none" xmlns="http://www.w3.org/2000/svg">
<path d="M5.54977 7.74207L11.9173 5.61957C14.7748 4.66707 16.3273 6.22707 15.3823 9.08457L13.2598 15.4521C11.8348 19.7346 9.49477 19.7346 8.06977 15.4521L7.43977 13.5621L5.54977 12.9321C1.26727 11.5071 1.26727 9.17457 5.54977 7.74207Z" stroke="#6B43B5" stroke-width="1.2" stroke-linecap="round" stroke-linejoin="round"/>
<path d="M7.58203 13.2394L10.267 10.5469" stroke="#6B43B5" stroke-width="1.2" stroke-linecap="round" stroke-linejoin="round"/>
<path d="M27.172 16.6C26.528 16.6 25.9493 16.488 25.436 16.264C24.932 16.0306 24.5353 15.7133 24.246 15.312C23.9567 14.9013 23.8073 14.43 23.798 13.898H25.156C25.2027 14.3553 25.3893 14.7426 25.716 15.06C26.052 15.368 26.5373 15.522 27.172 15.522C27.7787 15.522 28.2547 15.3726 28.6 15.074C28.9547 14.766 29.132 14.374 29.132 13.898C29.132 13.5246 29.0293 13.2213 28.824 12.988C28.6187 12.7546 28.362 12.5773 28.054 12.456C27.746 12.3346 27.3307 12.204 26.808 12.064C26.164 11.896 25.646 11.728 25.254 11.56C24.8713 11.392 24.54 11.1306 24.26 10.776C23.9893 10.412 23.854 9.92662 23.854 9.31995C23.854 8.78795 23.9893 8.31662 24.26 7.90595C24.5307 7.49529 24.9087 7.17795 25.394 6.95395C25.8887 6.72995 26.4533 6.61795 27.088 6.61795C28.0027 6.61795 28.7493 6.84662 29.328 7.30395C29.916 7.76129 30.2473 8.36795 30.322 9.12395H28.922C28.8753 8.75062 28.6793 8.42395 28.334 8.14395C27.9887 7.85462 27.5313 7.70995 26.962 7.70995C26.43 7.70995 25.996 7.84995 25.66 8.12995C25.324 8.40062 25.156 8.78329 25.156 9.27795C25.156 9.63262 25.254 9.92195 25.45 10.146C25.6553 10.37 25.9027 10.5426 26.192 10.664C26.4907 10.776 26.906 10.9066 27.438 11.056C28.082 11.2333 28.6 11.4106 28.992 11.588C29.384 11.756 29.72 12.022 30 12.386C30.28 12.7406 30.42 13.226 30.42 13.842C30.42 14.318 30.294 14.766 30.042 15.186C29.79 15.606 29.4167 15.9466 28.922 16.208C28.4273 16.4693 27.844 16.6 27.172 16.6ZM39.2948 12.372C39.2948 12.6146 39.2808 12.8713 39.2528 13.142H33.1208C33.1675 13.898 33.4241 14.4906 33.8908 14.92C34.3668 15.34 34.9408 15.55 35.6128 15.55C36.1635 15.55 36.6208 15.424 36.9848 15.172C37.3581 14.9106 37.6195 14.5653 37.7688 14.136H39.1408C38.9355 14.8733 38.5248 15.4753 37.9088 15.942C37.2928 16.3993 36.5275 16.628 35.6128 16.628C34.8848 16.628 34.2315 16.4646 33.6528 16.138C33.0835 15.8113 32.6355 15.3493 32.3088 14.752C31.9821 14.1453 31.8188 13.4453 31.8188 12.652C31.8188 11.8586 31.9775 11.1633 32.2948 10.566C32.6121 9.96862 33.0555 9.51129 33.6248 9.19395C34.2035 8.86729 34.8661 8.70395 35.6128 8.70395C36.3408 8.70395 36.9848 8.86262 37.5448 9.17995C38.1048 9.49729 38.5341 9.93595 38.8328 10.496C39.1408 11.0466 39.2948 11.672 39.2948 12.372ZM37.9788 12.106C37.9788 11.6206 37.8715 11.2053 37.6568 10.86C37.4421 10.5053 37.1481 10.2393 36.7748 10.062C36.4108 9.87529 36.0048 9.78195 35.5568 9.78195C34.9128 9.78195 34.3621 9.98729 33.9048 10.398C33.4568 10.8086 33.2001 11.378 33.1348 12.106H37.9788ZM44.7144 8.68995C45.6478 8.68995 46.4038 8.97462 46.9824 9.54395C47.5611 10.104 47.8504 10.916 47.8504 11.98V16.502H46.5904V12.162C46.5904 11.3966 46.3991 10.8133 46.0164 10.412C45.6338 10.0013 45.1111 9.79595 44.4484 9.79595C43.7764 9.79595 43.2398 10.006 42.8384 10.426C42.4464 10.846 42.2504 11.4573 42.2504 12.26V16.502H40.9764V8.82995H42.2504V9.92195C42.5024 9.52995 42.8431 9.22662 43.2724 9.01195C43.7111 8.79729 44.1918 8.68995 44.7144 8.68995ZM51.4855 9.87995V14.402C51.4855 14.7753 51.5648 15.0413 51.7235 15.2C51.8822 15.3493 52.1575 15.424 52.5495 15.424H53.4875V16.502H52.3395C51.6302 16.502 51.0982 16.3386 50.7435 16.012C50.3888 15.6853 50.2115 15.1486 50.2115 14.402V9.87995H49.2175V8.82995H50.2115V6.89795H51.4855V8.82995H53.4875V9.87995H51.4855ZM55.4371 16.586C55.1945 16.586 54.9891 16.502 54.8211 16.334C54.6531 16.166 54.5691 15.9606 54.5691 15.718C54.5691 15.4753 54.6531 15.27 54.8211 15.102C54.9891 14.934 55.1945 14.85 55.4371 14.85C55.6705 14.85 55.8665 14.934 56.0251 15.102C56.1931 15.27 56.2771 15.4753 56.2771 15.718C56.2771 15.9606 56.1931 16.166 56.0251 16.334C55.8665 16.502 55.6705 16.586 55.4371 16.586ZM55.4371 10.594C55.1945 10.594 54.9891 10.51 54.8211 10.342C54.6531 10.174 54.5691 9.96862 54.5691 9.72595C54.5691 9.48329 54.6531 9.27795 54.8211 9.10995C54.9891 8.94195 55.1945 8.85795 55.4371 8.85795C55.6705 8.85795 55.8665 8.94195 56.0251 9.10995C56.1931 9.27795 56.2771 9.48329 56.2771 9.72595C56.2771 9.96862 56.1931 10.174 56.0251 10.342C55.8665 10.51 55.6705 10.594 55.4371 10.594Z" fill="#848696"/>
<path d="M62.816 16.834C64.1707 15.746 65.232 14.8553 66 14.162C66.768 13.458 67.4133 12.7273 67.936 11.97C68.4693 11.202 68.736 10.45 68.736 9.71395C68.736 9.02062 68.5653 8.47662 68.224 8.08195C67.8933 7.67662 67.3547 7.47395 66.608 7.47395C65.8827 7.47395 65.3173 7.70329 64.912 8.16195C64.5173 8.60995 64.304 9.21262 64.272 9.96995H62.864C62.9067 8.77529 63.2693 7.85262 63.952 7.20195C64.6347 6.55129 65.5147 6.22595 66.592 6.22595C67.6907 6.22595 68.56 6.52995 69.2 7.13795C69.8507 7.74595 70.176 8.58329 70.176 9.64995C70.176 10.5353 69.9093 11.3993 69.376 12.242C68.8533 13.074 68.256 13.81 67.584 14.45C66.912 15.0793 66.0533 15.8153 65.008 16.658H70.512V17.874H62.816V16.834Z" fill="black"/>
</svg>
