<svg width="18" height="18" viewBox="0 0 18 18" fill="none" xmlns="http://www.w3.org/2000/svg">
<path d="M11.175 1.50195H6.825C6.315 1.50195 5.595 1.80196 5.235 2.16196L2.16 5.23696C1.8 5.59696 1.5 6.31696 1.5 6.82696V11.1769C1.5 11.6869 1.8 12.4069 2.16 12.7669L5.235 15.8419C5.595 16.2019 6.315 16.502 6.825 16.502H11.175C11.685 16.502 12.405 16.2019 12.765 15.8419L15.84 12.7669C16.2 12.4069 16.5 11.6869 16.5 11.1769V6.82696C16.5 6.31696 16.2 5.59696 15.84 5.23696L12.765 2.16196C12.405 1.80196 11.685 1.50195 11.175 1.50195Z" stroke="#6B43B5" stroke-width="1.2" stroke-linecap="round" stroke-linejoin="round"/>
<path d="M5.8125 9.00141L7.935 11.1239L12.1875 6.87891" stroke="#6B43B5" stroke-width="1.2" stroke-linecap="round" stroke-linejoin="round"/>
</svg>
