<svg width="16" height="17" viewBox="0 0 16 17" fill="none" xmlns="http://www.w3.org/2000/svg">
<path d="M14.6666 8.50033V11.8337C14.6666 13.8337 13.3333 15.167 11.3333 15.167H4.66659C2.66659 15.167 1.33325 13.8337 1.33325 11.8337V8.50033C1.33325 6.68699 2.42659 5.42032 4.12659 5.20699C4.29992 5.18032 4.47992 5.16699 4.66659 5.16699H11.3333C11.5066 5.16699 11.6733 5.17365 11.8333 5.20032C13.5533 5.40032 14.6666 6.67366 14.6666 8.50033Z" stroke="#6B43B5" stroke-width="1.25" stroke-linecap="round" stroke-linejoin="round"/>
<path d="M11.8344 5.19967C11.6744 5.17301 11.5077 5.16635 11.3344 5.16635H4.66769C4.48102 5.16635 4.30102 5.17968 4.12769 5.20635C4.22102 5.01968 4.35435 4.84635 4.51435 4.68635L6.68102 2.51301C7.59435 1.60634 9.07435 1.60634 9.98769 2.51301L11.1544 3.69302C11.581 4.11302 11.8077 4.64634 11.8344 5.19967Z" stroke="#6B43B5" stroke-width="1.25" stroke-linecap="round" stroke-linejoin="round"/>
<path d="M14.6666 8.83301H12.6666C11.9333 8.83301 11.3333 9.43301 11.3333 10.1663C11.3333 10.8997 11.9333 11.4997 12.6666 11.4997H14.6666" stroke="#6B43B5" stroke-width="1.25" stroke-linecap="round" stroke-linejoin="round"/>
</svg>
